<svg width="1920" height="1193" viewBox="0 0 1920 1193" fill="none" xmlns="http://www.w3.org/2000/svg">
<path d="M1861.5 628L1919.5 615.5V904L1310 884H833H0V647L3 635L0 637L5 629H0L3 627L12 602.5L18 623L26 631.5L20.5 629L29 637L24 635L29 645L20.5 638.5C20.5 644.9 29.8333 650.833 34.5 653L24 650L30.5 655L20.5 650L34.5 662L30.5 661L34.5 666L20.5 655V658.5L33 670H30.5L37 675.5L24 670L38 681.5L26 675.5L27.5 679C31.9 683.8 41.6667 686 46 686.5H39L46 690L30.5 685.5L46 700.5L26 684V688L40 699L27.5 696.5L41.5 706L30.5 703L34.5 707L29 706L34 712.5L89 706L137.5 718.5L162.5 712.5L184 718.5L256 750.5L277.5 745.5L363.5 770L392.5 765L429 774.5L518.5 762.5L549 745.5L645 765L677 748L701 768L771 773L781 765L841 794L864 779L883.5 793L892.5 791.5L897.5 785L898.5 777L896 779L898.5 774.5L890 782L900 770L902 765L892.5 773L902 762.5L900 758.5L892.5 765L902 754L896 758.5L904 748L906.5 731L909.5 746.5L917.5 756.5L909.5 750.5L919.5 762.5L914 760L919.5 770L909.5 760L912 770L919.5 779H914L919.5 782H909.5L917.5 790.5L912 788.5V797.5L925 801L940 794L937.5 785L943.5 779L945.5 768H977L1013 738.5L1043.5 729L1054.5 745.5H1065L1073 757H1082.5L1093 768V757L1183.5 745.5L1228 705L1250.5 712.5L1280.5 697.5L1310 692L1332 678.5L1361.5 692L1383 687L1419.5 697.5L1500 674.5L1514.5 660.5L1554 669.5L1571.5 658H1608L1726 622.5L1746.5 613L1743 611.5L1732 615.5L1748.5 600.5V596.5L1726 608.5L1747 589L1732 600.5L1743 589L1725 602L1733 594L1728 595.5L1747 583.5V581.5C1742.32 584.113 1733.86 588.881 1731.27 590.47C1730.82 590.812 1730.55 591 1730.5 591C1730.43 591 1730.72 590.806 1731.27 590.47C1734.44 588.045 1746.57 577.904 1753 572.5V570C1748.2 576.8 1734.33 578.833 1728 579C1742 577 1752.83 564.833 1756.5 559V554.5L1751.5 559L1758.03 549.383C1753.53 553.524 1745.72 555.488 1741.5 556C1747.9 555.2 1757.17 542.333 1761 536C1757 541.6 1742.33 545.667 1735.5 547C1751.5 542.2 1759.17 527 1761 520L1741.5 537.375L1757.5 518C1753.9 520.4 1747.33 522.333 1744.5 523C1754.1 519.8 1759.5 511.667 1761 508L1749.5 515L1764 501.5L1768 481L1771.5 499.5L1785.5 512L1776 508C1776.77 519.546 1786.86 528.931 1792.37 532.594L1793 533C1792.8 532.874 1792.59 532.738 1792.37 532.594L1777.5 523C1780.3 535.8 1793.33 543 1799.5 545C1793.5 545 1787 540.333 1784.5 538C1786.5 542 1791.67 546.667 1794 548.5C1789.6 546.9 1782.83 540.833 1780 538C1780 548 1793 559.5 1799.5 564C1793.5 562.8 1780 549.667 1774 543.25L1793 568L1776 553C1783.2 568.6 1802 578.5 1810.5 581.5C1800.1 581.5 1787.17 572.5 1782 568C1783.6 576.8 1798.67 585 1806 588C1800.8 586.8 1791.17 582.5 1787 580.5L1788 582.5L1810.5 596.5L1798 594L1803.5 599L1792 592.5C1795.2 599.3 1804.52 603.333 1808.78 604.5L1806 606L1809.5 608.5H1806L1807 612.5L1784.5 592.5L1785.5 597.5L1803.5 614.5L1788 611.5L1818.5 625L1822.5 612.5C1819.3 614.5 1813.17 615.333 1810.5 615.5C1818 613.5 1830.5 596.5 1826.5 600.5C1823.3 603.7 1816.83 605.5 1814 606C1824.4 602.8 1830 587.667 1831.5 580.5C1828.7 586.1 1820.33 589.833 1816.5 591C1823.05 588.688 1828.89 577.836 1831.25 572.127C1829.11 576.635 1820.64 580.225 1816.5 581.5C1821.3 579.1 1825.17 571.5 1826.5 568L1818.5 575L1826.5 565.5L1812.5 571.5C1818.1 569.1 1825.17 562.167 1828 559L1830.5 548.5L1818.5 559L1829 545L1818.5 550.5L1830.5 541L1828 537.375L1833.5 531.5L1836 515L1838.5 530L1847.5 543.25L1852.5 548.5L1842.5 543C1847.91 551.893 1854.07 555.896 1856.74 556.906L1850 554.5C1853.17 557.167 1858.4 562.1 1854 560.5C1849.6 558.9 1843.17 549.5 1840.5 545V550.5C1842.1 559.3 1853.83 567.167 1859.5 570L1847 565.5L1852.5 573.5L1844.5 565.5L1847 571.5L1857 580.5H1854C1858.17 584 1865.1 590.4 1859.5 588C1853.9 585.6 1844.5 575 1840.5 570C1840.1 575.6 1853 586.333 1859.5 591L1842.5 580.5C1844.1 589.7 1859.17 597.667 1866.5 600.5L1857 599L1864.5 604.5C1858.5 603.3 1850.33 597 1847 594C1847 598.8 1858.67 607.667 1864.5 611.5L1850 606C1850 609.6 1863 615.167 1869.5 617.5L1861.5 619L1869.5 622.5L1859.5 619L1861.5 622.5L1852.5 615.5L1861.5 626L1847 615.5L1850 622.5L1861.5 628Z" fill="#224560"/>
</svg>
