<svg width="1920" height="1193" viewBox="0 0 1920 1193" fill="none" xmlns="http://www.w3.org/2000/svg">
<path d="M0 905.842L3.49909 901.605L17.9953 905.842L21.2445 901.605L33.9912 905.842V897.367L35.9906 901.605L38.49 904.347V899.86L40.4895 904.347V899.86V889.391L42.9888 897.367L45.4882 892.382L42.9888 901.605L43.8416 904.347H50.4869L53.4861 897.367L58.4848 890.886L53.4861 899.86L54.4858 903.848L56.9852 901.605L58.4848 904.347L65.9828 903.848L75.9802 897.367L72.4811 901.605L69.4819 903.848H83.4783V897.367L85.4778 899.86V890.886L87.4772 899.86L89.4767 895.373L93.4757 892.382L89.4767 897.367L93.4757 904.347L106.472 903.848L115.97 904.347V902.103L119.969 895.373L117.969 901.605L126.967 889.391L119.969 902.103L122.468 900.982V904.347H133.465H147.462H170.956H219.443H239.438L236.938 899.86L239.438 902.103L234.939 892.382L241.437 902.103C242.877 900.488 245.3 897.711 246.396 896.281C246.631 895.725 246.824 895.373 246.936 895.373C247.048 895.373 246.822 895.725 246.396 896.281C245.793 897.711 244.916 900.488 244.436 902.103L246.936 904.347H260.432H285.426H298.422H334.413L324.915 888.394L332.414 896.869V890.886L334.413 899.86L337.912 895.373L339.912 886.898L337.912 898.364L335.913 901.356L339.912 904.347L342.411 895.373V902.851L348.909 896.869L345.41 902.851H348.909L345.41 904.347L420.891 906.839L480.875 909.831L510.367 911.326L505.368 898.364L510.367 906.839L508.368 883.408L511.867 904.347L514.366 901.356V908.335L518.365 895.373L516.866 906.839L518.365 904.347V909.831L523.364 904.347L520.365 911.326L544.858 909.831L571.351 906.839C589.444 904.648 601.779 905.587 627.837 911.326C635.288 903.199 639.58 901.662 647.332 901.356C657.088 901.404 662.461 902.053 672.325 904.347L674.075 899.86L682.822 887.895L677.324 898.364L688.821 887.895L680.823 898.364L679.323 901.356L685.822 895.373L682.822 901.356L688.821 898.364L691.32 890.388L688.821 901.356L682.822 906.839C694.259 911.163 704.063 913.42 724.312 917.309L772.799 927.279C776.559 929.864 777.45 932.938 778.797 938.746C810.912 956.37 824.315 961.659 847.28 970.154C788.073 965.078 753.937 963.136 687.321 965.168C670.705 967.749 672.888 970.725 688.821 977.632C673.956 981.04 664.576 982.565 643.333 983.614L642.585 983.694C629.936 985.046 622.617 985.828 592.846 985.11L0 990.5V905.842Z" fill="#112B37"/>
<path d="M1899.51 844.522H1920V989.5L1180.19 977.133C1197.58 966.046 1214.36 960.452 1258.17 951.708C1246.5 949.029 1240.87 947.352 1221.18 946.224C1173.21 943.572 1149.6 943.472 1109.71 944.23C1131.94 928.202 1145.67 920.757 1173.69 911.825L1171.19 910.329L1167.2 909.831L1170.2 908.834L1174.19 910.329L1170.2 897.866L1173.69 901.854V896.869L1171.19 893.379L1174.19 895.373L1175.19 901.854L1176.19 896.869L1183.19 886.898L1178.19 896.869L1177.19 903.35L1180.19 899.86L1177.19 906.84L1180.19 904.845L1178.19 910.329L1181.69 908.834L1180.19 910.828C1237.01 900.678 1278.55 896.737 1353.65 889.889C1365.08 881.712 1379.14 873.438 1386.14 872.44C1393.14 871.443 1407.27 875.924 1411.13 879.919L1415.13 878.921L1416.13 872.44L1413.63 869.948H1416.63L1418.13 873.438L1421.13 857.983L1419.13 852.998L1422.63 857.983L1420.63 868.452L1426.13 855.49L1430.13 849.009L1428.63 852L1421.13 869.948L1424.13 865.461L1433.13 862.968L1426.13 865.461L1420.63 874.933L1423.13 872.939L1419.13 879.919L1422.63 877.426L1419.13 882.411L1433.63 888.892C1444.6 884.591 1450.96 882.321 1464.62 879.919L1502.11 885.402L1494.11 879.919H1491.61L1493.11 878.921L1501.61 881.414L1494.11 871.443L1489.61 869.449H1494.11L1502.11 877.426L1500.61 873.438V868.452L1501.61 873.438L1506.61 879.919V876.429L1508.61 885.402C1522.98 875.526 1530.25 872.151 1542.79 866.334L1543.6 865.959C1564.06 871.637 1572.73 876.028 1584.59 885.402L1630.08 867.954L1626.08 864.464L1621.58 862.968H1617.08C1616.28 862.968 1619.08 862.304 1620.58 861.971L1617.08 859.479H1621.58L1628.58 864.464L1627.58 860.476L1621.58 853.995L1627.58 856.487L1623.58 850.505L1627.58 853.995V841.033C1628.08 845.021 1628.98 853.197 1628.58 853.995C1628.18 854.792 1630.08 855.989 1631.07 856.487L1630.08 850.006L1631.07 847.015V850.006L1632.57 856.487L1636.07 861.971C1636.24 859.312 1636.47 854.194 1636.07 854.992C1635.67 855.789 1633.91 852.333 1633.07 850.505L1637.57 854.992L1637.07 851.502L1632.57 845.021L1637.57 850.006L1639.57 856.487L1642.07 845.021L1645.07 838.54L1643.07 845.021L1641.07 856.487L1643.07 851.003L1641.07 861.971L1644.07 859.479L1639.57 865.959L1662.57 853.995L1667.57 850.006L1666.07 848.012L1668.57 850.006L1666.07 841.033L1663.07 838.041L1666.07 839.537L1669.07 845.021L1661.57 825.079L1657.57 822.587L1662.57 823.584L1669.07 842.528V836.546L1670.06 832.557V835.549L1671.06 848.012V841.033L1673.56 838.041L1672.56 841.033V851.003L1675.06 849.508L1691.06 842.528L1714.05 841.033L1711.05 839.537H1714.05L1709.05 833.555L1714.05 838.041L1713.05 832.557L1715.05 825.079L1714.05 831.062L1717.05 841.033L1722.55 839.537L1719.55 837.044L1722.05 838.041L1719.55 834.552H1717.05L1719.55 832.557L1722.55 835.549L1722.05 833.555L1724.55 825.079L1723.55 832.557L1724.55 837.044L1725.55 833.555V839.537L1732.55 838.041L1761.04 822.587L1759.54 819.596H1757.04L1759.54 818.598L1762.04 821.59L1762.54 808.628V822.088L1783.04 816.106L1797.53 820.593L1795.53 817.103L1796.53 814.112V817.103L1800.03 820.593V818.598L1804.53 815.109L1801.53 818.598V822.587L1832.02 839.038L1865.51 844.522L1877.01 844.024V840.036L1872.01 836.546C1870.51 836.546 1867.41 836.346 1867.01 835.549C1866.61 834.751 1868.85 833.887 1870.01 833.555L1874.01 835.05L1873.51 825.079L1870.01 821.59L1873.51 822.587L1874.01 812.117L1871.01 807.631L1875.01 810.622L1876.01 821.59L1877.01 818.598L1879.51 814.112L1878.51 817.103V836.546L1879.51 829.566H1883.51L1881.01 831.062L1879.51 842.03L1881.51 839.038L1884.51 840.036H1882.51L1879.51 845.519H1889.51L1894.01 844.024L1889.51 840.036H1893.51L1889.51 833.056L1892.51 836.546L1893.51 822.587L1892.01 816.106L1895.01 821.59V833.555L1896.01 826.076L1899.51 821.59L1898.01 825.079L1896.01 840.036L1898.01 833.555L1903 828.071L1899.51 833.056L1897.01 842.03L1898.51 838.041L1901 837.044L1904 838.041L1901 839.038L1899.51 844.522Z" fill="#112A35"/>
</svg>
