<svg width="1920" height="1193" viewBox="0 0 1920 1193" fill="none" xmlns="http://www.w3.org/2000/svg">
<path d="M10.0052 538.5L0 532V896.5L97 889L755.894 848H1146.1L1920 856.5V559L1899.99 565L1881.48 570L1875.48 565L1865.97 567V561L1860.47 565L1853.47 557.5H1841.46L1836.46 565L1825.95 567L1818.45 550.5L1810.94 554.5L1802.94 567L1800.94 561H1794.43L1792.43 567L1779.43 561H1771.92L1759.92 575L1748.91 572L1738.41 575L1724.4 570L1718.9 577.5V570L1713.89 567L1708.89 579.5L1697.88 577.5L1684.88 567L1681.88 570V575L1676.37 579.5L1670.37 575L1662.37 570H1652.86L1643.36 577.5L1622.85 586.5L1618.84 593.5V586.5L1614.34 579.5H1604.34L1598.33 577.5L1588.83 579.5L1591.83 589L1584.83 593.5L1568.82 589V593.5L1559.81 602.5L1553.31 599C1552.31 599.167 1549.71 600.4 1547.31 604C1544.9 607.6 1539.97 604.5 1537.8 602.5L1532.8 609.5L1508.29 602.5L1501.78 608V612.5L1492.78 611L1486.77 614.5L1482.77 611L1475.27 616V624L1466.26 619.5L1458.76 616L1451.26 627L1450.76 621.5L1432.25 617.5L1424.24 624H1422.74C1419.14 624 1415.9 627.667 1414.74 629.5L1417.74 619.5L1414.74 612.5L1410.23 609.5L1397.23 608C1396.39 608.5 1395.23 610.5 1397.23 614.5C1399.23 618.5 1396.39 620.833 1394.73 621.5L1397.23 626H1390.22L1388.22 621.5H1381.72L1369.71 614.5L1365.71 621.5L1359.21 617.5L1361.71 631.5H1357.21L1348.2 624L1342.2 621.5L1333.69 612.5L1325.19 609.5L1331.69 624H1325.19L1328.19 631.5L1319.19 628V624L1310.68 614.5V626L1307.68 628L1300.18 624L1284.17 639L1280.67 633L1276.16 628L1266.66 631.5L1263.66 637.5L1256.65 633L1253.15 642.5L1247.65 639L1250.15 635.5L1247.65 633H1245.15L1230.14 644.5L1221.14 639V633L1216.13 628L1201.63 639H1181.62L1172.11 637.5H1162.61L1164.61 646.5L1146.1 644.5L1140.09 651L1136.09 644.5L1120.58 651L1109.58 644.5L1114.08 654.5L1095.57 652L1090.07 657.5L1047.05 666L1029.54 654.5L1018.03 660.5L994.018 656.5L989.515 663L967.504 660.5L961.501 657.5L953.497 660.5L928.484 651L926.482 657.5L921.48 656.5L914.476 652L904.971 654.5L900.469 651L896.967 656.5L892.965 657.5L882.96 649.5H871.954L856.946 639L839.937 649.5V639L826.931 628L816.425 639L797.916 628H777.905L767.9 619.5L744.388 615L737.884 604.5L725.378 619.5H708.869L700.865 609.5H676.352V604.5L651.839 609.5L640.333 604.5L646.837 598.5L640.333 590L634.831 594H615.32C610.318 592.667 592.008 590 558.791 590C525.574 590 515.935 581.667 515.268 577.5L486.754 590V577.5L464.242 570V577.5L458.739 585L435.727 577.5V585H412.215L380.698 577.5L371.193 585L360.188 577.5L342.678 585H321.167L299.156 570L290.651 577.5L277.645 557H267.139L262.137 570L253.632 563L241.126 557L225.617 551.5V563L209.609 557L202.606 543C200.938 543 197.903 544.7 199.104 551.5C200.304 558.3 194.935 558 192.1 557L187.598 546.5L180.094 543L176.092 557L168.088 546.5L153.08 557L147.077 551.5H127.066L116.06 543L96.5503 551.5L83.5435 546.5L90.5472 538.5H83.5435L71.037 532L53.0276 538.5V532L30.5159 538.5V532L20.0104 538.5L10.0052 532V538.5Z" fill="url(#paint0_linear_626_615)"/>
<defs>
<linearGradient id="paint0_linear_626_615" x1="960" y1="532" x2="960" y2="1192.5" gradientUnits="userSpaceOnUse">
<stop stop-color="#245E86"/>
<stop offset="0.401042" stop-color="#497D9F"/>
</linearGradient>
</defs>
</svg>
