<svg width="1000" height="1193" viewBox="0 0 1000 1193" fill="none" xmlns="http://www.w3.org/2000/svg">
<path d="M338.672 454.44C332.032 454.44 325.912 453.4 320.312 451.32C314.792 449.16 309.952 446.12 305.792 442.2C301.712 438.28 298.512 433.68 296.192 428.4C293.952 423.12 292.832 417.32 292.832 411C292.832 404.68 293.952 398.88 296.192 393.6C298.512 388.32 301.752 383.72 305.912 379.8C310.072 375.88 314.952 372.88 320.552 370.8C326.152 368.64 332.312 367.56 339.032 367.56C346.472 367.56 353.152 368.8 359.072 371.28C365.072 373.76 370.112 377.36 374.192 382.08L361.712 393.6C358.672 390.4 355.352 388.04 351.752 386.52C348.152 384.92 344.232 384.12 339.992 384.12C335.912 384.12 332.192 384.76 328.832 386.04C325.472 387.32 322.552 389.16 320.072 391.56C317.672 393.96 315.792 396.8 314.432 400.08C313.152 403.36 312.512 407 312.512 411C312.512 414.92 313.152 418.52 314.432 421.8C315.792 425.08 317.672 427.96 320.072 430.44C322.552 432.84 325.432 434.68 328.712 435.96C332.072 437.24 335.752 437.88 339.752 437.88C343.592 437.88 347.312 437.28 350.912 436.08C354.592 434.8 358.152 432.68 361.592 429.72L372.632 443.76C368.072 447.2 362.752 449.84 356.672 451.68C350.672 453.52 344.672 454.44 338.672 454.44ZM354.872 441.24V409.68H372.632V443.76L354.872 441.24ZM431.49 454.44C424.85 454.44 418.69 453.36 413.01 451.2C407.41 449.04 402.53 446 398.37 442.08C394.29 438.16 391.09 433.56 388.77 428.28C386.53 423 385.41 417.24 385.41 411C385.41 404.76 386.53 399 388.77 393.72C391.09 388.44 394.33 383.84 398.49 379.92C402.65 376 407.53 372.96 413.13 370.8C418.73 368.64 424.81 367.56 431.37 367.56C438.01 367.56 444.09 368.64 449.61 370.8C455.21 372.96 460.05 376 464.13 379.92C468.29 383.84 471.53 388.44 473.85 393.72C476.17 398.92 477.33 404.68 477.33 411C477.33 417.24 476.17 423.04 473.85 428.4C471.53 433.68 468.29 438.28 464.13 442.2C460.05 446.04 455.21 449.04 449.61 451.2C444.09 453.36 438.05 454.44 431.49 454.44ZM431.37 437.88C435.13 437.88 438.57 437.24 441.69 435.96C444.89 434.68 447.69 432.84 450.09 430.44C452.49 428.04 454.33 425.2 455.61 421.92C456.97 418.64 457.65 415 457.65 411C457.65 407 456.97 403.36 455.61 400.08C454.33 396.8 452.49 393.96 450.09 391.56C447.77 389.16 445.01 387.32 441.81 386.04C438.61 384.76 435.13 384.12 431.37 384.12C427.61 384.12 424.13 384.76 420.93 386.04C417.81 387.32 415.05 389.16 412.65 391.56C410.25 393.96 408.37 396.8 407.01 400.08C405.73 403.36 405.09 407 405.09 411C405.09 414.92 405.73 418.56 407.01 421.92C408.37 425.2 410.21 428.04 412.53 430.44C414.93 432.84 417.73 434.68 420.93 435.96C424.13 437.24 427.61 437.88 431.37 437.88ZM491.94 453V369H511.38V453H491.94ZM531.315 453V369H547.395L596.955 429.48H589.155V369H608.355V453H592.395L542.715 392.52H550.515V453H531.315ZM668.79 454.44C662.15 454.44 656.03 453.4 650.43 451.32C644.91 449.16 640.07 446.12 635.91 442.2C631.83 438.28 628.63 433.68 626.31 428.4C624.07 423.12 622.95 417.32 622.95 411C622.95 404.68 624.07 398.88 626.31 393.6C628.63 388.32 631.87 383.72 636.03 379.8C640.19 375.88 645.07 372.88 650.67 370.8C656.27 368.64 662.43 367.56 669.15 367.56C676.59 367.56 683.27 368.8 689.19 371.28C695.19 373.76 700.23 377.36 704.31 382.08L691.83 393.6C688.79 390.4 685.47 388.04 681.87 386.52C678.27 384.92 674.35 384.12 670.11 384.12C666.03 384.12 662.31 384.76 658.95 386.04C655.59 387.32 652.67 389.16 650.19 391.56C647.79 393.96 645.91 396.8 644.55 400.08C643.27 403.36 642.63 407 642.63 411C642.63 414.92 643.27 418.52 644.55 421.8C645.91 425.08 647.79 427.96 650.19 430.44C652.67 432.84 655.55 434.68 658.83 435.96C662.19 437.24 665.87 437.88 669.87 437.88C673.71 437.88 677.43 437.28 681.03 436.08C684.71 434.8 688.27 432.68 691.71 429.72L702.75 443.76C698.19 447.2 692.87 449.84 686.79 451.68C680.79 453.52 674.79 454.44 668.79 454.44ZM684.99 441.24V409.68H702.75V443.76L684.99 441.24Z" fill="#5ACDE7"/>
<path d="M429.567 169.995C430.94 168.15 432.747 165.652 434.195 163.867C438.53 158.947 439.092 158.302 443.037 154.665C444.207 153.705 445.595 152.55 446.952 151.462C436.94 159.937 435.665 169.32 444.852 175.117C444.837 175.117 444.837 175.117 444.837 175.132C457.685 182.872 485.84 181.2 508.055 171.285C529.572 161.685 537.515 147.952 526.895 139.792C517.572 138.045 506.457 137.842 494.697 139.417L493.475 137.4L494.487 134.055C501.402 133.432 507.972 133.582 513.642 134.55C515.015 134.782 516.822 135.18 518.172 135.465C520.782 136.102 522.2 136.485 523.902 137.032C525.642 137.55 527.127 138.067 529.715 139.027C532.25 140.025 533.345 140.475 535.377 141.487C537.654 142.526 539.865 143.701 542 145.005C558.92 155.647 548.397 175.065 518.54 188.37C488.765 201.63 450.822 203.715 433.82 193.2C433.812 193.185 433.79 193.17 433.745 193.155H433.775C424.49 187.275 423.515 178.74 429.567 169.995ZM507.035 244.395L506.795 232.44L498.297 222.99C470.225 229.35 442.632 227.985 427.287 218.947C427.235 218.887 427.107 218.827 427.055 218.767C418.37 213.42 416.225 206.52 416.877 199.02C414.845 209.992 414.68 213.952 414.972 223.342C415.332 229.222 418.73 234.645 425.562 238.92L425.615 238.98C441.972 249.15 476.052 251.355 507.035 244.395ZM542.472 258.082C502.85 273.975 453.26 274.912 431.72 260.205C434.046 265.89 437.211 271.194 441.11 275.94C460.88 289.44 506.397 288.577 542.75 273.99C564.027 265.462 577.452 254.115 580.977 243.48L581.967 240.277C584.315 232.162 584.757 225.405 585.132 219.39C584.705 232.447 569.322 247.297 542.472 258.082Z" fill="#5ACDE7"/>
<path d="M455.007 288.69C456.252 289.875 460.167 294.682 480.005 299.992C485.367 301.177 498.867 304.98 523.805 299.452L523.955 297.18L521.982 294.09C498.845 299.565 473.142 297.735 455.007 288.69ZM512.262 194.122L533.33 210.09C533.33 210.09 537.837 213.337 533.585 215.617C529.347 217.875 518.465 223.402 518.465 223.402L507.717 219.39L502.325 221.79L511.835 230.047L511.91 242.895L517.497 240.412L521.202 229.56C521.202 229.56 532.58 225.18 537.095 223.53C541.632 221.917 541.025 227.437 541.025 227.437L538.79 253.77L546.215 250.47L558.44 214.942C558.44 214.942 564.92 211.792 569.48 209.025C574.032 206.257 575.592 201.667 575.592 201.667C575.592 201.667 571.152 199.755 566.037 201.292C560.922 202.815 554.255 205.53 554.255 205.53L519.665 190.837L512.262 194.122Z" fill="#5ACDE7"/>
<path d="M467.69 143.602L481.993 154.995L485.9 154.41L478.115 144.188C478.115 144.188 476.42 142.073 478.7 141.57C480.995 141.06 486.8 139.875 486.8 139.875L491.165 143.362L494.105 142.927L490.775 137.632L492.53 131.76L489.688 132.173L486.32 136.642C486.32 136.642 480.41 137.198 478.085 137.392C475.745 137.573 476.75 135.06 476.75 135.06L481.235 123L477.305 123.577L466.955 138.645C466.955 138.645 463.505 139.275 461.008 139.988C458.503 140.693 457.183 142.628 457.183 142.628C457.183 142.628 459.02 144.113 461.608 144.06C464.218 144.008 467.69 143.602 467.69 143.602ZM538.378 289.987L529.123 285.15L526.993 285.893L532.475 290.798C532.475 290.798 533.645 291.795 532.415 292.327C531.185 292.852 528.05 294.143 528.05 294.143L525.463 292.988L523.925 293.542L526.078 295.837L525.868 299.19L527.473 298.635L528.673 295.913C528.673 295.913 531.928 294.945 533.225 294.6C534.515 294.247 534.223 295.762 534.223 295.762L533 303L535.138 302.257L539.33 292.688C539.33 292.688 541.183 291.96 542.51 291.292C543.838 290.625 544.363 289.395 544.363 289.395C544.363 289.395 543.185 288.75 541.73 289.072C540.268 289.38 538.378 289.987 538.378 289.987Z" fill="#5ACDE7"/>
</svg>
