<svg width="1920" height="1193" viewBox="0 0 1920 1193" fill="none" xmlns="http://www.w3.org/2000/svg">
<path d="M798.52 444.44C791.88 444.44 785.76 443.4 780.16 441.32C774.64 439.16 769.8 436.12 765.64 432.2C761.56 428.28 758.36 423.68 756.04 418.4C753.8 413.12 752.68 407.32 752.68 401C752.68 394.68 753.8 388.88 756.04 383.6C758.36 378.32 761.6 373.72 765.76 369.8C769.92 365.88 774.8 362.88 780.4 360.8C786 358.64 792.16 357.56 798.88 357.56C806.32 357.56 813 358.8 818.92 361.28C824.92 363.76 829.96 367.36 834.04 372.08L821.56 383.6C818.52 380.4 815.2 378.04 811.6 376.52C808 374.92 804.08 374.12 799.84 374.12C795.76 374.12 792.04 374.76 788.68 376.04C785.32 377.32 782.4 379.16 779.92 381.56C777.52 383.96 775.64 386.8 774.28 390.08C773 393.36 772.36 397 772.36 401C772.36 404.92 773 408.52 774.28 411.8C775.64 415.08 777.52 417.96 779.92 420.44C782.4 422.84 785.28 424.68 788.56 425.96C791.92 427.24 795.6 427.88 799.6 427.88C803.44 427.88 807.16 427.28 810.76 426.08C814.44 424.8 818 422.68 821.44 419.72L832.48 433.76C827.92 437.2 822.6 439.84 816.52 441.68C810.52 443.52 804.52 444.44 798.52 444.44ZM814.72 431.24V399.68H832.48V433.76L814.72 431.24ZM891.338 444.44C884.698 444.44 878.538 443.36 872.858 441.2C867.258 439.04 862.378 436 858.218 432.08C854.138 428.16 850.938 423.56 848.618 418.28C846.378 413 845.258 407.24 845.258 401C845.258 394.76 846.378 389 848.618 383.72C850.938 378.44 854.178 373.84 858.338 369.92C862.498 366 867.378 362.96 872.978 360.8C878.578 358.64 884.658 357.56 891.218 357.56C897.858 357.56 903.938 358.64 909.458 360.8C915.058 362.96 919.898 366 923.978 369.92C928.138 373.84 931.378 378.44 933.698 383.72C936.018 388.92 937.178 394.68 937.178 401C937.178 407.24 936.018 413.04 933.698 418.4C931.378 423.68 928.138 428.28 923.978 432.2C919.898 436.04 915.058 439.04 909.458 441.2C903.938 443.36 897.898 444.44 891.338 444.44ZM891.218 427.88C894.978 427.88 898.418 427.24 901.538 425.96C904.738 424.68 907.538 422.84 909.938 420.44C912.338 418.04 914.178 415.2 915.458 411.92C916.818 408.64 917.498 405 917.498 401C917.498 397 916.818 393.36 915.458 390.08C914.178 386.8 912.338 383.96 909.938 381.56C907.618 379.16 904.858 377.32 901.658 376.04C898.458 374.76 894.978 374.12 891.218 374.12C887.458 374.12 883.978 374.76 880.778 376.04C877.658 377.32 874.898 379.16 872.498 381.56C870.098 383.96 868.218 386.8 866.858 390.08C865.578 393.36 864.938 397 864.938 401C864.938 404.92 865.578 408.56 866.858 411.92C868.218 415.2 870.058 418.04 872.378 420.44C874.778 422.84 877.578 424.68 880.778 425.96C883.978 427.24 887.458 427.88 891.218 427.88ZM951.788 443V359H971.228V443H951.788ZM991.163 443V359H1007.24L1056.8 419.48H1049V359H1068.2V443H1052.24L1002.56 382.52H1010.36V443H991.163ZM1128.64 444.44C1122 444.44 1115.88 443.4 1110.28 441.32C1104.76 439.16 1099.92 436.12 1095.76 432.2C1091.68 428.28 1088.48 423.68 1086.16 418.4C1083.92 413.12 1082.8 407.32 1082.8 401C1082.8 394.68 1083.92 388.88 1086.16 383.6C1088.48 378.32 1091.72 373.72 1095.88 369.8C1100.04 365.88 1104.92 362.88 1110.52 360.8C1116.12 358.64 1122.28 357.56 1129 357.56C1136.44 357.56 1143.12 358.8 1149.04 361.28C1155.04 363.76 1160.08 367.36 1164.16 372.08L1151.68 383.6C1148.64 380.4 1145.32 378.04 1141.72 376.52C1138.12 374.92 1134.2 374.12 1129.96 374.12C1125.88 374.12 1122.16 374.76 1118.8 376.04C1115.44 377.32 1112.52 379.16 1110.04 381.56C1107.64 383.96 1105.76 386.8 1104.4 390.08C1103.12 393.36 1102.48 397 1102.48 401C1102.48 404.92 1103.12 408.52 1104.4 411.8C1105.76 415.08 1107.64 417.96 1110.04 420.44C1112.52 422.84 1115.4 424.68 1118.68 425.96C1122.04 427.24 1125.72 427.88 1129.72 427.88C1133.56 427.88 1137.28 427.28 1140.88 426.08C1144.56 424.8 1148.12 422.68 1151.56 419.72L1162.6 433.76C1158.04 437.2 1152.72 439.84 1146.64 441.68C1140.64 443.52 1134.64 444.44 1128.64 444.44ZM1144.84 431.24V399.68H1162.6V433.76L1144.84 431.24Z" fill="#5ACDE7"/>
<path d="M881.742 158.217C883.267 156.167 885.275 153.392 886.883 151.408C891.7 145.942 892.325 145.225 896.708 141.183C898.008 140.117 899.55 138.833 901.058 137.625C889.933 147.042 888.517 157.467 898.725 163.908C898.708 163.908 898.708 163.908 898.708 163.925C912.983 172.525 944.267 170.667 968.95 159.65C992.858 148.983 1001.68 133.725 989.883 124.658C979.525 122.717 967.175 122.492 954.108 124.242L952.75 122L953.875 118.283C961.558 117.592 968.858 117.758 975.158 118.833C976.683 119.092 978.692 119.533 980.192 119.85C983.092 120.558 984.667 120.983 986.558 121.592C988.492 122.167 990.142 122.742 993.017 123.808C995.833 124.917 997.05 125.417 999.308 126.542C1001.84 127.696 1004.29 129.001 1006.67 130.45C1025.47 142.275 1013.77 163.85 980.6 178.633C947.517 193.367 905.358 195.683 886.467 184C886.458 183.983 886.433 183.967 886.383 183.95H886.417C876.1 177.417 875.017 167.933 881.742 158.217V158.217ZM967.817 240.883L967.55 227.6L958.108 217.1C926.917 224.167 896.258 222.65 879.208 212.608C879.15 212.542 879.008 212.475 878.95 212.408C869.3 206.467 866.917 198.8 867.642 190.467C865.383 202.658 865.2 207.058 865.525 217.492C865.925 224.025 869.7 230.05 877.292 234.8L877.35 234.867C895.525 246.167 933.392 248.617 967.817 240.883ZM1007.19 256.092C963.167 273.75 908.067 274.792 884.133 258.45C886.718 264.767 890.235 270.66 894.567 275.933C916.533 290.933 967.108 289.975 1007.5 273.767C1031.14 264.292 1046.06 251.683 1049.97 239.867L1051.07 236.308C1053.68 227.292 1054.17 219.783 1054.59 213.1C1054.12 227.608 1037.02 244.108 1007.19 256.092V256.092Z" fill="#5ACDE7"/>
<path d="M910.008 290.1C911.392 291.417 915.742 296.758 937.783 302.658C943.742 303.975 958.742 308.2 986.45 302.058L986.617 299.533L984.425 296.1C958.717 302.183 930.158 300.15 910.008 290.1V290.1ZM973.625 185.025L997.033 202.767C997.033 202.767 1002.04 206.375 997.317 208.908C992.608 211.417 980.517 217.558 980.517 217.558L968.575 213.1L962.583 215.767L973.15 224.942L973.233 239.217L979.442 236.458L983.558 224.4C983.558 224.4 996.2 219.533 1001.22 217.7C1006.26 215.908 1005.58 222.042 1005.58 222.042L1003.1 251.3L1011.35 247.633L1024.93 208.158C1024.93 208.158 1032.13 204.658 1037.2 201.583C1042.26 198.508 1043.99 193.408 1043.99 193.408C1043.99 193.408 1039.06 191.283 1033.37 192.992C1027.69 194.683 1020.28 197.7 1020.28 197.7L981.85 181.375L973.625 185.025V185.025Z" fill="#5ACDE7"/>
<path d="M924.1 128.892L939.991 141.55L944.333 140.9L935.683 129.542C935.683 129.542 933.8 127.192 936.333 126.633C938.883 126.067 945.333 124.75 945.333 124.75L950.183 128.625L953.45 128.142L949.75 122.258L951.7 115.733L948.541 116.192L944.8 121.158C944.8 121.158 938.233 121.775 935.65 121.992C933.05 122.192 934.166 119.4 934.166 119.4L939.15 106L934.783 106.642L923.283 123.383C923.283 123.383 919.45 124.083 916.675 124.875C913.891 125.658 912.425 127.808 912.425 127.808C912.425 127.808 914.466 129.458 917.341 129.4C920.241 129.342 924.1 128.892 924.1 128.892V128.892ZM1002.64 291.542L992.358 286.167L989.991 286.992L996.083 292.442C996.083 292.442 997.383 293.55 996.016 294.142C994.65 294.725 991.166 296.158 991.166 296.158L988.291 294.875L986.583 295.492L988.975 298.042L988.741 301.767L990.525 301.15L991.858 298.125C991.858 298.125 995.475 297.05 996.916 296.667C998.35 296.275 998.025 297.958 998.025 297.958L996.666 306L999.041 305.175L1003.7 294.542C1003.7 294.542 1005.76 293.733 1007.23 292.992C1008.71 292.25 1009.29 290.883 1009.29 290.883C1009.29 290.883 1007.98 290.167 1006.37 290.525C1004.74 290.867 1002.64 291.542 1002.64 291.542Z" fill="#5ACDE7"/>
</svg>
