<svg width="1920" height="1193" viewBox="0 0 1920 1193" fill="none" xmlns="http://www.w3.org/2000/svg">
<path d="M1152.5 1020H1119L1194.5 1009.5L1285 1002L1384.5 987.5L1468 964.5L1459 943.5L1472.5 960L1477 927L1468 900L1480.5 920.5L1485 957L1489 954L1492.5 943.5V954L1485 970L1555 982H1567.5L1555 970H1542L1550 964.5L1567.5 970L1555 949.5H1537.5L1559 943.5L1578.5 962L1576 949.5L1584.5 964.5L1587.5 949.5L1591 970L1595 957V970L1610.5 964.5L1635 960L1639 949.5L1617.5 927L1639 943.5V935L1635 912L1643 937L1645.5 960L1719 954L1786 943.5L1772.5 927L1793.5 940L1789.5 923.5L1775.5 906.5L1789.5 917L1813.5 943.5L1854.5 940L1829 927H1809.5L1835.5 923.5L1869 935L1866 917L1851.5 891.5L1874 920.5L1858.5 869.5L1829 858L1858.5 866.5L1891 935V912L1874 876L1891 906.5V869.5L1899.5 858L1896 869.5V906.5L1903.5 940H1920V1121.5L1595 1099L1492.5 1069L1417 1080.5L1384.5 1069H1373L1384.5 1044.5L1362.5 1059.5H1336L1343 1036.5L1318.5 1053.5L1285 1044.5H1265L1274.5 1027L1252.5 1036.5H1228V1027L1152.5 1020Z" fill="#0C1C28"/>
<path d="M6 970.5H0V1105C26.9094 1104.95 241.234 1079.77 265 1073L362.5 1064L349.5 1052.5L383.5 1059L430.5 1052.5C480.701 1057.56 505.804 1058.89 546 1059L621.5 1055.5L618 1040L638.5 1052.5L684.5 1043.5L653 1018.5C646.389 1004.66 630.5 1005 623 998C615.5 991 589.974 981.477 568 977.5L557.5 970.5L568 956L583 940.5L568 947L546 970.5L538 960L546 947L534 954L541 940.5L534 951L527.5 940.5V909L523.25 947.875L527.5 963.25L534 970.5C526.167 965.667 509.8 956 507 956C504.2 956 515.167 965.667 521 970.5L442 962.5L383.5 963.25C378.492 967.209 373.817 968.521 356.5 966.5L299.5 963.25L218.5 962.5L234.5 947L221.5 951L234.5 929.5L246.5 921.5H237L212.5 947L221.5 918L205.5 951L203 936V954L200 959L194.5 940.5V959H160.5L144 956H130.5L112 963.25L135 940.5H154.5L130.5 936L112 947L121 927C122.833 924 127.3 918 130.5 918H121L96.5 963.25H78L30 970.5L37 963.25L17.5 970.5L30 940.5L60.5 921.5L25 936L12 963.25V956L17.5 921.5L6 963.25V947L3 963.25L6 970.5Z" fill="#0C1C28"/>
</svg>
