<svg width="1920" height="1193" viewBox="0 0 1920 1193" fill="none" xmlns="http://www.w3.org/2000/svg">
<path d="M233.378 800.986C212.889 799.988 0 800.986 0 800.986V953L780.593 931.158C794.981 926.16 804.754 923.9 831.067 922.68C854.064 920.547 872.495 920.032 910.026 919.687C906.244 917.101 904.146 915.47 900.531 911.707C897.907 905.074 894.235 901.918 880.042 898.241L883.04 895.747C900.689 894.982 910.526 887.768 908.027 887.269C905.528 886.77 891.815 883.535 872.046 881.783V878.79L875.044 880.286C874.245 879.887 872.379 876.795 871.546 875.299V870.311L876.543 875.299L868.548 864.825V861.833L875.044 866.82L872.546 863.828L876.044 865.823L868.548 856.347L872.046 857.843L869.547 854.352L873.545 856.347L868.548 851.359V847.868L873.545 851.858L868.048 845.374V842.88L871.546 845.374L866.549 837.893L865.549 828.916L864.55 837.893L860.052 843.878H862.551L858.553 847.369H861.551L857.553 852.855L862.551 849.364V852.855L856.054 857.843L859.552 856.845L856.054 860.835L862.551 856.347V858.84L860.052 861.833L862.551 860.835L857.553 867.818L862.551 863.329L861.551 867.818L855.055 871.808C840.314 857.038 835.449 854.006 828.568 851.359C818.045 846.504 813.127 843.974 770.599 832.905L765.102 830.91L763.602 818.941L769.599 821.933L767.1 817.943L770.599 818.941L763.602 804.477L767.1 809.464L766.101 802.981L769.599 805.474L763.602 797.993L762.103 789.016L767.1 797.993L766.101 794.003L768.6 795.5L763.602 789.016V787.021L767.1 789.016L762.103 781.535L765.102 783.53L760.104 776.547L758.105 763.081L756.106 776.547L751.109 784.527L756.106 781.535L747.611 791.011L753.607 788.018V792.008L747.611 799.49L756.106 794.003L745.612 809.464L753.607 804.477L751.109 807.469L753.607 806.472L746.611 817.943L754.607 810.961L746.611 823.429L754.607 815.948L749.11 825.923L744.612 827.419L730.12 824.926L725.122 810.961L731.369 815.2L734.118 817.943L727.121 804.477L731.619 809.464L727.121 800.986L734.118 807.469L725.122 795.5L726.122 789.016L728.62 796.996L727.121 787.021L730.12 791.011L726.122 782.532L728.62 783.53L722.624 776.547L720.625 765.575L719.625 777.545L715.128 785.525L717.626 783.53L712.629 791.011L717.626 787.021L716.627 792.008L709.131 797.993H712.629L710.63 800.986L717.626 794.003L715.128 800.986L707.631 809.464L715.128 805.474L712.629 810.961L715.128 809.464L710.63 816.946L717.626 809.464L712.629 818.941L716.627 816.946L715.128 820.437L710.63 821.933C664.436 813.879 537.72 829.414 524.727 833.903C511.733 838.392 424.779 826.422 424.779 826.422C424.779 826.422 360.812 816.447 349.818 816.447H327.829C327.829 816.447 253.868 801.983 233.378 800.986Z" fill="#1E3E54"/>
<path d="M1018.68 917.605C1003.28 917.229 981.571 912.687 955.089 911.661C987.182 907.61 1002.24 905.452 1025.19 901.755C1005.01 896.943 978.029 895.921 918.536 895.316C925.76 885.953 924.249 883.419 911.525 883.924C936.428 874.816 945.41 867.027 952.085 848.261H949.581L953.086 845.289L949.581 846.28L954.088 837.364L949.581 840.336L954.088 834.392H952.085L953.086 832.411H952.085L957.092 824.981L957.593 815.57L959.095 824.486L962.6 829.439L960.597 828.449L965.104 833.402H961.098L966.105 838.355H965.104V839.346L960.597 835.878L961.098 840.336C961.932 841.162 964.102 843.11 966.105 844.299C964.436 844.959 961.098 846.082 961.098 845.289V846.28C993.529 841.631 1014.55 839.824 1054.73 837.364L1060.74 829.935L1056.24 831.421L1059.24 828.449L1054.73 829.935L1061.75 822.505H1059.74L1060.74 819.533L1056.74 823.496L1060.74 815.57L1056.74 818.047L1060.74 813.589H1059.24L1063.25 807.645L1064.25 800.711L1065.25 807.645L1069.26 813.589L1067.25 812.103L1071.26 818.047L1067.25 817.056L1072.76 822.01L1067.75 820.771L1066.25 819.533L1072.76 828.449L1066.25 826.963L1072.76 835.878L1067.25 830.925L1070.26 835.878L1067.25 834.392L1068.25 837.364C1086.27 839.753 1095.32 839.286 1110.82 837.364C1132.29 829.091 1146.23 825.286 1173.41 819.533L1227.99 814.58L1229.99 811.408H1226.49L1233.5 802.197L1226.49 808.141L1228.99 802.197L1226.49 804.178L1233.5 794.272L1229.99 797.244L1233.5 791.795L1227.99 795.263L1236 784.861L1228.99 790.309L1231.49 787.338L1228.99 788.824L1236 779.413L1233.5 780.899L1236 775.45L1233.5 777.927L1239.51 761.086L1240.51 766.534L1241.51 764.553V770.992L1245.01 775.45H1243.51L1248.52 780.899L1243.51 779.413L1249.52 787.338L1243.51 784.861L1249.52 794.272L1243.51 791.795L1252.52 802.197L1245.01 798.234L1248.52 802.197L1243.51 799.225V802.197L1253.53 809.627H1249.52L1252.52 812.103L1245.01 809.627L1249.52 813.589L1305.6 809.627H1417.77C1417.77 809.627 1440.8 806.655 1448.81 806.16C1456.82 805.664 1481.86 809.627 1481.86 809.627C1522.26 811.468 1545.02 812.343 1588.52 809.627L1635.58 785.852C1647.68 778.959 1656.86 776.238 1679.65 774.459L1920 765.544V928.997H1474.35H1129.34C1115.02 924.898 1099.33 922.37 1062.75 917.605C1070.35 917.108 1034.08 917.982 1018.68 917.605Z" fill="#1E3E54"/>
</svg>
