<svg width="1920" height="1193" viewBox="0 0 1920 1193" fill="none" xmlns="http://www.w3.org/2000/svg">
<path d="M113.059 431.526H0V852L717.374 809.013H1352.7L1719.4 837.5L1919.5 856.5V540.022H1902.99C1902.99 540.022 1891.49 536.023 1876.48 536.023H1854.47L1784.43 524.023L1736.4 521.523C1736.4 521.523 1730.4 517.523 1719.4 515.023C1708.39 512.523 1700.89 515.023 1700.89 515.023C1669.58 509.059 1649.12 492.611 1646.36 489.024C1643.59 485.437 1630.85 487.024 1630.85 487.024L1607.84 477.025L1600.83 479.524C1566.96 488.969 1551.23 494.601 1526.8 505.024L1507.29 502.524C1507.29 502.524 1503.28 508.523 1497.78 513.023C1492.28 517.523 1463.76 537.522 1463.76 537.522L1425.24 552.022C1402.52 555.258 1386.22 556.022 1379.22 559.022C1372.21 562.022 1281.04 601.927 1245.15 622.02L1224.14 627.019C1224.14 627.019 1108.58 679.518 1081.06 679.518C1053.55 679.518 1015.53 674.018 1015.53 674.018L957.999 679.518L902.47 655.518L883.96 647.019L872.454 645.019C858.391 638.534 850.778 635.256 841.438 635.019C841.438 635.019 831.933 624.519 823.429 622.02C814.924 619.52 800.417 622.02 800.417 622.02C787.399 615.681 780.14 612.156 774.904 611.52C767.851 611.234 762.897 613.602 753.392 619.52C741.185 616.783 736.751 616.163 706.368 606.52C677.417 591.71 656.564 578.881 615.821 552.522C603.199 539.821 595.621 533.098 570.297 530.523L538.781 511.523C520.353 503.614 482.09 478.499 463.241 472.525H453.736C438.516 462.973 421.663 462.813 389.203 464.025C354.45 455.873 335.346 453.15 302.157 452.525C287.905 446.409 281.757 444.864 273.643 445.026C273.643 445.026 213.611 425.526 189.098 429.526C164.586 433.526 183.596 432.026 166.587 433.526C149.578 435.026 137.93 432.018 113.059 431.526Z" fill="url(#paint0_linear_626_618)"/>
<defs>
<linearGradient id="paint0_linear_626_618" x1="959.75" y1="428.985" x2="959.75" y2="1193" gradientUnits="userSpaceOnUse">
<stop stop-color="#387299"/>
<stop offset="0.234375" stop-color="#5388AA"/>
</linearGradient>
</defs>
</svg>
