<svg width="400" height="521" viewBox="0 0 400 521" fill="none" xmlns="http://www.w3.org/2000/svg">
<path d="M143.358 508.6C140.592 508.6 138.042 508.167 135.708 507.3C133.408 506.4 131.392 505.133 129.658 503.5C127.958 501.867 126.625 499.95 125.658 497.75C124.725 495.55 124.258 493.133 124.258 490.5C124.258 487.867 124.725 485.45 125.658 483.25C126.625 481.05 127.975 479.133 129.708 477.5C131.442 475.867 133.475 474.617 135.808 473.75C138.142 472.85 140.708 472.4 143.508 472.4C146.608 472.4 149.392 472.917 151.858 473.95C154.358 474.983 156.458 476.483 158.158 478.45L152.958 483.25C151.692 481.917 150.308 480.933 148.808 480.3C147.308 479.633 145.675 479.3 143.908 479.3C142.208 479.3 140.658 479.567 139.258 480.1C137.858 480.633 136.642 481.4 135.608 482.4C134.608 483.4 133.825 484.583 133.258 485.95C132.725 487.317 132.458 488.833 132.458 490.5C132.458 492.133 132.725 493.633 133.258 495C133.825 496.367 134.608 497.567 135.608 498.6C136.642 499.6 137.842 500.367 139.208 500.9C140.608 501.433 142.142 501.7 143.808 501.7C145.408 501.7 146.958 501.45 148.458 500.95C149.992 500.417 151.475 499.533 152.908 498.3L157.508 504.15C155.608 505.583 153.392 506.683 150.858 507.45C148.358 508.217 145.858 508.6 143.358 508.6ZM150.108 503.1V489.95H157.508V504.15L150.108 503.1ZM177.283 508.4C174.416 508.4 171.866 507.8 169.633 506.6C167.433 505.4 165.683 503.767 164.383 501.7C163.116 499.6 162.483 497.217 162.483 494.55C162.483 491.85 163.116 489.467 164.383 487.4C165.683 485.3 167.433 483.667 169.633 482.5C171.866 481.3 174.416 480.7 177.283 480.7C180.116 480.7 182.649 481.3 184.883 482.5C187.116 483.667 188.866 485.283 190.133 487.35C191.399 489.417 192.033 491.817 192.033 494.55C192.033 497.217 191.399 499.6 190.133 501.7C188.866 503.767 187.116 505.4 184.883 506.6C182.649 507.8 180.116 508.4 177.283 508.4ZM177.283 502C178.583 502 179.749 501.7 180.783 501.1C181.816 500.5 182.633 499.65 183.233 498.55C183.833 497.417 184.133 496.083 184.133 494.55C184.133 492.983 183.833 491.65 183.233 490.55C182.633 489.45 181.816 488.6 180.783 488C179.749 487.4 178.583 487.1 177.283 487.1C175.983 487.1 174.816 487.4 173.783 488C172.749 488.6 171.916 489.45 171.283 490.55C170.683 491.65 170.383 492.983 170.383 494.55C170.383 496.083 170.683 497.417 171.283 498.55C171.916 499.65 172.749 500.5 173.783 501.1C174.816 501.7 175.983 502 177.283 502ZM197.246 508V481.1H205.046V508H197.246ZM201.146 477.35C199.713 477.35 198.546 476.933 197.646 476.1C196.746 475.267 196.296 474.233 196.296 473C196.296 471.767 196.746 470.733 197.646 469.9C198.546 469.067 199.713 468.65 201.146 468.65C202.58 468.65 203.746 469.05 204.646 469.85C205.546 470.617 205.996 471.617 205.996 472.85C205.996 474.15 205.546 475.233 204.646 476.1C203.78 476.933 202.613 477.35 201.146 477.35ZM228.635 480.7C230.769 480.7 232.669 481.133 234.335 482C236.035 482.833 237.369 484.133 238.335 485.9C239.302 487.633 239.785 489.867 239.785 492.6V508H231.985V493.8C231.985 491.633 231.502 490.033 230.535 489C229.602 487.967 228.269 487.45 226.535 487.45C225.302 487.45 224.185 487.717 223.185 488.25C222.219 488.75 221.452 489.533 220.885 490.6C220.352 491.667 220.085 493.033 220.085 494.7V508H212.285V481.1H219.735V488.55L218.335 486.3C219.302 484.5 220.685 483.117 222.485 482.15C224.285 481.183 226.335 480.7 228.635 480.7ZM259.701 518.1C257.168 518.1 254.718 517.783 252.351 517.15C250.018 516.55 248.068 515.633 246.501 514.4L249.601 508.8C250.734 509.733 252.168 510.467 253.901 511C255.668 511.567 257.401 511.85 259.101 511.85C261.868 511.85 263.868 511.233 265.101 510C266.368 508.767 267.001 506.933 267.001 504.5V500.45L267.501 493.7L267.401 486.9V481.1H274.801V503.5C274.801 508.5 273.501 512.183 270.901 514.55C268.301 516.917 264.568 518.1 259.701 518.1ZM258.501 506.7C256.001 506.7 253.734 506.167 251.701 505.1C249.701 504 248.084 502.483 246.851 500.55C245.651 498.583 245.051 496.3 245.051 493.7C245.051 491.067 245.651 488.783 246.851 486.85C248.084 484.883 249.701 483.367 251.701 482.3C253.734 481.233 256.001 480.7 258.501 480.7C260.768 480.7 262.768 481.167 264.501 482.1C266.234 483 267.584 484.417 268.551 486.35C269.518 488.25 270.001 490.7 270.001 493.7C270.001 496.667 269.518 499.117 268.551 501.05C267.584 502.95 266.234 504.367 264.501 505.3C262.768 506.233 260.768 506.7 258.501 506.7ZM260.051 500.3C261.418 500.3 262.634 500.033 263.701 499.5C264.768 498.933 265.601 498.15 266.201 497.15C266.801 496.15 267.101 495 267.101 493.7C267.101 492.367 266.801 491.217 266.201 490.25C265.601 489.25 264.768 488.483 263.701 487.95C262.634 487.383 261.418 487.1 260.051 487.1C258.684 487.1 257.468 487.383 256.401 487.95C255.334 488.483 254.484 489.25 253.851 490.25C253.251 491.217 252.951 492.367 252.951 493.7C252.951 495 253.251 496.15 253.851 497.15C254.484 498.15 255.334 498.933 256.401 499.5C257.468 500.033 258.684 500.3 260.051 500.3Z" fill="#179DC7"/>
<path d="M43.4834 104.433C46.5334 100.333 50.5501 94.7833 53.7667 90.8167C63.4001 79.8833 64.6501 78.45 73.4167 70.3667C76.0167 68.2333 79.1001 65.6667 82.1167 63.25C59.8667 82.0834 57.0334 102.933 77.4501 115.817C77.4167 115.817 77.4167 115.817 77.4167 115.85C105.967 133.05 168.533 129.333 217.9 107.3C265.717 85.9667 283.367 55.45 259.767 37.3167C239.05 33.4333 214.35 32.9833 188.217 36.4833L185.5 32L187.75 24.5667C203.117 23.1833 217.717 23.5167 230.317 25.6667C233.367 26.1833 237.383 27.0667 240.383 27.7C246.183 29.1167 249.333 29.9667 253.117 31.1833C256.983 32.3333 260.283 33.4833 266.033 35.6167C271.667 37.8333 274.1 38.8333 278.617 41.0833C283.675 43.3911 288.589 46.0014 293.333 48.9C330.933 72.55 307.55 115.7 241.2 145.267C175.033 174.733 90.7167 179.367 52.9334 156C52.9167 155.967 52.8667 155.933 52.7667 155.9H52.8334C32.2001 142.833 30.0334 123.867 43.4834 104.433ZM215.633 269.767L215.1 243.2L196.217 222.2C133.833 236.333 72.5167 233.3 38.4167 213.217C38.3001 213.083 38.0167 212.95 37.9001 212.817C18.6001 200.933 13.8334 185.6 15.2834 168.933C10.7667 193.317 10.4001 202.117 11.0501 222.983C11.8501 236.05 19.4001 248.1 34.5834 257.6L34.7001 257.733C71.0501 280.333 146.783 285.233 215.633 269.767ZM294.383 300.183C206.333 335.5 96.1334 337.583 48.2667 304.9C53.436 317.533 60.4697 329.319 69.1334 339.867C113.067 369.867 214.217 367.95 295 335.533C342.283 316.583 372.117 291.367 379.95 267.733L382.15 260.617C387.367 242.583 388.35 227.567 389.183 214.2C388.233 243.217 354.05 276.217 294.383 300.183Z" fill="#179DC7"/>
<path d="M100.017 368.2C102.783 370.833 111.483 381.517 155.567 393.317C167.483 395.95 197.483 404.4 252.9 392.117L253.233 387.067L248.85 380.2C197.433 392.367 140.317 388.3 100.017 368.2ZM227.25 158.05L274.067 193.533C274.067 193.533 284.083 200.75 274.633 205.817C265.217 210.833 241.033 223.117 241.033 223.117L217.15 214.2L205.167 219.533L226.3 237.883L226.467 266.433L238.883 260.917L247.117 236.8C247.117 236.8 272.4 227.067 282.433 223.4C292.517 219.817 291.167 232.083 291.167 232.083L286.2 290.6L302.7 283.267L329.867 204.317C329.867 204.317 344.267 197.317 354.4 191.167C364.517 185.017 367.983 174.817 367.983 174.817C367.983 174.817 358.117 170.567 346.75 173.983C335.383 177.367 320.567 183.4 320.567 183.4L243.7 150.75L227.25 158.05Z" fill="#179DC7"/>
<path d="M128.2 45.7833L159.983 71.1L168.667 69.8L151.367 47.0833C151.367 47.0833 147.6 42.3833 152.667 41.2667C157.767 40.1333 170.667 37.5 170.667 37.5L180.367 45.25L186.9 44.2833L179.5 32.5167L183.4 19.4667L177.083 20.3833L169.6 30.3167C169.6 30.3167 156.467 31.55 151.3 31.9833C146.1 32.3833 148.333 26.8 148.333 26.8L158.3 0L149.567 1.28333L126.567 34.7667C126.567 34.7667 118.9 36.1667 113.35 37.75C107.783 39.3167 104.85 43.6167 104.85 43.6167C104.85 43.6167 108.933 46.9167 114.683 46.8C120.483 46.6833 128.2 45.7833 128.2 45.7833ZM285.283 371.083L264.717 360.333L259.983 361.983L272.167 372.883C272.167 372.883 274.767 375.1 272.033 376.283C269.3 377.45 262.333 380.317 262.333 380.317L256.583 377.75L253.167 378.983L257.95 384.083L257.483 391.533L261.05 390.3L263.717 384.25C263.717 384.25 270.95 382.1 273.833 381.333C276.7 380.55 276.05 383.917 276.05 383.917L273.333 400L278.083 398.35L287.4 377.083C287.4 377.083 291.517 375.467 294.467 373.983C297.417 372.5 298.583 369.767 298.583 369.767C298.583 369.767 295.967 368.333 292.733 369.05C289.483 369.733 285.283 371.083 285.283 371.083Z" fill="#179DC7"/>
</svg>
